<svg id="Capa_1" data-name="Capa 1" xmlns="http://www.w3.org/2000/svg" viewBox="0 0 64.46 21.21"><defs><style>.cls-1,.cls-3{fill:none;stroke:#c78469;stroke-miterlimit:10;}.cls-1{stroke-width:0.5px;}.cls-2,.cls-4{fill:#eeddc8;}.cls-3{stroke-width:0.25px;}.cls-4{isolation:isolate;font-size:3.88px;font-family:AntipastoPro, Antipasto Pro;}</style></defs><title>LOGOGSMOBILE</title><line class="cls-1" x1="33.36" y1="1.75" x2="64.44" y2="0.25"/><line class="cls-1" x1="0.91" y1="18.13" x2="31.99" y2="16.63"/><path class="cls-2" d="M6.51,14.86a4.61,4.61,0,0,1-1.9-.38,5.07,5.07,0,0,1-1.56-1,5,5,0,0,1-1-1.53A4.65,4.65,0,0,1,2,8.2a4.87,4.87,0,0,1,1-1.52,5.13,5.13,0,0,1,1.56-1,5,5,0,0,1,1.9-.38,4.92,4.92,0,0,1,2.43.57A4.6,4.6,0,0,1,10.62,7.4a.33.33,0,0,1,0,.24.29.29,0,0,1-.13.19L9,8.81a.28.28,0,0,1-.22,0,.3.3,0,0,1-.22-.12A3.41,3.41,0,0,0,7.67,8a2.13,2.13,0,0,0-1.16-.29,2.07,2.07,0,0,0-.91.19,2.57,2.57,0,0,0-.74.53,2.49,2.49,0,0,0-.5.77,2.3,2.3,0,0,0,0,1.82,2.4,2.4,0,0,0,.5.75,2.37,2.37,0,0,0,.74.52,2.08,2.08,0,0,0,.91.2,2.64,2.64,0,0,0,1-.18,1.49,1.49,0,0,0,.75-.58.15.15,0,0,0,0-.18.2.2,0,0,0-.17-.09H6.59a.3.3,0,0,1-.31-.3h0V9.61a.31.31,0,0,1,.31-.31H11a.32.32,0,0,1,.23.09.29.29,0,0,1,.1.22,4.58,4.58,0,0,1,0,.53,4.68,4.68,0,0,1,0,.64,4.18,4.18,0,0,1-.49,1.62,4.85,4.85,0,0,1-1,1.3,4.92,4.92,0,0,1-3.22,1.16Z" transform="translate(-1.61 -0.88)"/><path class="cls-2" d="M24.16,5.7a.41.41,0,0,1,.17-.2.47.47,0,0,1,.26-.08h1.78a.44.44,0,0,1,.25.08.47.47,0,0,1,.17.2l3.71,8.64a.26.26,0,0,1,0,.24.3.3,0,0,1-.27.13H28a.39.39,0,0,1-.26-.09.58.58,0,0,1-.19-.19l-.34-.77a.65.65,0,0,0-.18-.19.46.46,0,0,0-.25-.08H24.13a.5.5,0,0,0-.26.08.52.52,0,0,0-.17.19l-.35.77a.54.54,0,0,1-.18.19.41.41,0,0,1-.24.08H20.74l-.13,0-.11-.08a.31.31,0,0,1-.06-.13.33.33,0,0,1,0-.17Zm.75,5.52H26a.19.19,0,0,0,.19-.08.18.18,0,0,0,0-.2l-.31-.74-.32-.8q-.06-.12-.12-.12s-.08,0-.11.12l-.64,1.54a.17.17,0,0,0,0,.19.2.2,0,0,0,.19.09Z" transform="translate(-1.61 -0.88)"/><path class="cls-2" d="M46.42,9.91a3,3,0,0,1,.41.29,1.76,1.76,0,0,1,.37.4,2,2,0,0,1,.29.56,2.46,2.46,0,0,1,.11.72,3.22,3.22,0,0,1-.27,1.37,2.26,2.26,0,0,1-.7.86,2.81,2.81,0,0,1-1,.46,5.41,5.41,0,0,1-1.21.13h-4a.31.31,0,0,1-.31-.31h0V5.72a.31.31,0,0,1,.31-.31h3.84a5,5,0,0,1,1.16.14,2.92,2.92,0,0,1,1,.43,2.41,2.41,0,0,1,.69.8A2.65,2.65,0,0,1,47.31,8,1.72,1.72,0,0,1,47,9a2.44,2.44,0,0,1-.62.66C46.25,9.73,46.25,9.83,46.42,9.91Zm-3.54-1h1.18a.51.51,0,0,0,.41-.2.71.71,0,0,0,.15-.44.52.52,0,0,0-.18-.39.54.54,0,0,0-.35-.16H42.88a.29.29,0,0,0-.3.3h0v.59a.3.3,0,0,0,.29.3ZM44.21,11H42.88a.29.29,0,0,0-.3.3h0v.72a.29.29,0,0,0,.3.3H44.3a.61.61,0,0,0,.44-.19.61.61,0,0,0,.2-.44.72.72,0,0,0-.2-.46A.64.64,0,0,0,44.21,11Z" transform="translate(-1.61 -0.88)"/><path class="cls-2" d="M60,14.7H58.05a.28.28,0,0,1-.22-.09.27.27,0,0,1-.08-.22V5.72a.27.27,0,0,1,.08-.22.28.28,0,0,1,.22-.09H60a.29.29,0,0,1,.22.09.31.31,0,0,1,.09.22v8.67a.27.27,0,0,1-.09.21A.28.28,0,0,1,60,14.7Z" transform="translate(-1.61 -0.88)"/><path class="cls-3" d="M7.13,14.86a4.61,4.61,0,0,1-1.9-.38,5.07,5.07,0,0,1-1.56-1,4.86,4.86,0,0,1-1-1.53,4.65,4.65,0,0,1,0-3.73,4.87,4.87,0,0,1,1-1.52,5.13,5.13,0,0,1,1.56-1,5,5,0,0,1,1.9-.38,5,5,0,0,1,2.43.57,4.63,4.63,0,0,1,1.68,1.58.24.24,0,0,1,0,.23.26.26,0,0,1-.13.19l-1.51,1a.31.31,0,0,1-.23,0,.3.3,0,0,1-.22-.12A3.28,3.28,0,0,0,8.29,8a2.22,2.22,0,0,0-1.16-.29,2.07,2.07,0,0,0-.91.19,2.45,2.45,0,0,0-.74.53A2.45,2.45,0,0,0,5,11a2.39,2.39,0,0,0,.5.76,2.6,2.6,0,0,0,.74.52,2.14,2.14,0,0,0,.9.19,2.64,2.64,0,0,0,1-.18,1.51,1.51,0,0,0,.74-.58.17.17,0,0,0,0-.18.18.18,0,0,0-.17-.08H7.21a.3.3,0,0,1-.3-.31h0V9.61A.3.3,0,0,1,7.2,9.3h4.38a.31.31,0,0,1,.22.09.33.33,0,0,1,.11.22,4.61,4.61,0,0,1,0,.53,4.68,4.68,0,0,1,0,.64,4.18,4.18,0,0,1-.49,1.62,4.69,4.69,0,0,1-1.05,1.3,4.92,4.92,0,0,1-3.22,1.16Z" transform="translate(-1.61 -0.88)"/><path class="cls-3" d="M24.55,5.7a.55.55,0,0,1,.17-.2A.5.5,0,0,1,25,5.42h1.78A.44.44,0,0,1,27,5.5a.55.55,0,0,1,.17.2l3.71,8.64a.29.29,0,0,1,0,.24.31.31,0,0,1-.28.13H28.42a.43.43,0,0,1-.26-.09.55.55,0,0,1-.18-.19l-.34-.77a.61.61,0,0,0-.19-.2.43.43,0,0,0-.24-.08H24.52a.44.44,0,0,0-.25.08.49.49,0,0,0-.18.2l-.35.76a.55.55,0,0,1-.17.2.46.46,0,0,1-.25.08H21.13a.31.31,0,0,1-.13,0,.26.26,0,0,1-.11-.07.31.31,0,0,1-.06-.13.39.39,0,0,1,0-.18Zm.75,5.52h1.13a.18.18,0,0,0,.18-.08.18.18,0,0,0,0-.2c-.08-.21-.18-.46-.3-.74s-.23-.55-.33-.8c0-.08-.07-.12-.12-.12s-.08,0-.11.12l-.64,1.54a.18.18,0,0,0,.06.25.15.15,0,0,0,.13,0Z" transform="translate(-1.61 -0.88)"/><path class="cls-3" d="M46.81,9.92a2.86,2.86,0,0,1,.4.28,2.1,2.1,0,0,1,.38.41,2.19,2.19,0,0,1,.28.55,2.57,2.57,0,0,1,.11.72,3.38,3.38,0,0,1-.26,1.37,2.28,2.28,0,0,1-.71.86,2.77,2.77,0,0,1-1,.46,5.53,5.53,0,0,1-1.21.13h-4a.29.29,0,0,1-.3-.3V5.72a.29.29,0,0,1,.3-.3h3.84a5.12,5.12,0,0,1,1.17.13,2.71,2.71,0,0,1,1,.44,2.22,2.22,0,0,1,.69.8A2.6,2.6,0,0,1,47.69,8a1.69,1.69,0,0,1-.29,1,2.55,2.55,0,0,1-.61.66C46.63,9.74,46.64,9.83,46.81,9.92Zm-3.54-1h1.18a.46.46,0,0,0,.4-.2A.61.61,0,0,0,45,8.31a.5.5,0,0,0-.18-.4.57.57,0,0,0-.35-.16h-1.2a.31.31,0,0,0-.31.3h0v.58a.31.31,0,0,0,.3.31h0ZM44.6,11H43.27a.3.3,0,0,0-.31.29h0v.72a.3.3,0,0,0,.3.31h1.43a.63.63,0,0,0,.43-.19.59.59,0,0,0,.2-.45.79.79,0,0,0-.19-.46A.64.64,0,0,0,44.6,11Z" transform="translate(-1.61 -0.88)"/><path class="cls-3" d="M60.52,14.7H58.61a.29.29,0,0,1-.22-.09.25.25,0,0,1-.08-.21V5.73a.27.27,0,0,1,.08-.22.29.29,0,0,1,.22-.09h1.91a.31.31,0,0,1,.3.3h0V14.4a.3.3,0,0,1-.3.3Z" transform="translate(-1.61 -0.88)"/><text class="cls-4" transform="translate(37.48 19.99)"><tspan xml:space="preserve">D  E  S  I  G  N</tspan></text></svg>