<svg id="Capa_1" data-name="Capa 1" xmlns="http://www.w3.org/2000/svg" viewBox="0 0 402.9 132.04"><defs><style>.cls-1,.cls-3{fill:none;stroke:#c78469;stroke-miterlimit:10;}.cls-1{stroke-width:2px;}.cls-2{fill:#eeddc8;}.cls-4,.cls-5{isolation:isolate;}.cls-5{font-size:24.25px;fill:#9b9a65;font-family:AntipastoPro, Antipasto Pro;}</style></defs><title>LOGOGS</title><line class="cls-1" x1="208.51" y1="10.37" x2="402.85" y2="1"/><line class="cls-1" x1="5.66" y1="112.79" x2="200" y2="103.42"/><path class="cls-2" d="M30.63,86.83a29.83,29.83,0,0,1-11.9-2.38A31.6,31.6,0,0,1,9,78,30.17,30.17,0,0,1,2.42,68.5a29.3,29.3,0,0,1,0-23.33A30.33,30.33,0,0,1,9,35.65a31.31,31.31,0,0,1,9.72-6.47,29.83,29.83,0,0,1,11.9-2.38A31,31,0,0,1,45.8,30.33a29,29,0,0,1,10.51,9.84,1.85,1.85,0,0,1,.2,1.47,1.92,1.92,0,0,1-.83,1.23L46.16,49a2.12,2.12,0,0,1-1.43.28,2.17,2.17,0,0,1-1.35-.76,21,21,0,0,0-5.49-4.85,13.88,13.88,0,0,0-7.26-1.82A13.37,13.37,0,0,0,25,43.06a15.15,15.15,0,0,0-4.64,3.29,15.46,15.46,0,0,0-3.14,4.8,14.71,14.71,0,0,0,0,11.39,15,15,0,0,0,3.14,4.72A15.62,15.62,0,0,0,25,70.51a13.37,13.37,0,0,0,5.67,1.23,16.62,16.62,0,0,0,6-1.11A9.83,9.83,0,0,0,41.32,67a1,1,0,0,0,.08-1.15,1.21,1.21,0,0,0-1.11-.52H31.11a1.9,1.9,0,0,1-1.91-1.87V54a1.92,1.92,0,0,1,1.91-1.91h27.3a2,2,0,0,1,1.39.52A2,2,0,0,1,60.47,54a27.77,27.77,0,0,1,.16,3.29,33.42,33.42,0,0,1-.24,4A26.78,26.78,0,0,1,57.3,71.44a28.27,28.27,0,0,1-6.5,8.09,30.92,30.92,0,0,1-20.12,7.3Z" transform="translate(0 0)"/><path class="cls-2" d="M140.94,29.54A3.05,3.05,0,0,1,142,28.3a2.88,2.88,0,0,1,1.63-.51H154.8a2.75,2.75,0,0,1,1.54.51,3,3,0,0,1,1.08,1.24l23.17,54a1.65,1.65,0,0,1-.12,1.51,1.77,1.77,0,0,1-1.71.79H165.14a2.77,2.77,0,0,1-1.62-.52,3.51,3.51,0,0,1-1.16-1.23l-2.14-4.76a3.76,3.76,0,0,0-1.15-1.23,2.76,2.76,0,0,0-1.55-.51H140.8a2.88,2.88,0,0,0-1.63.51,3,3,0,0,0-1.07,1.23l-2.22,4.76a3,3,0,0,1-1.08,1.19,2.7,2.7,0,0,1-1.55.52H119.59a2.13,2.13,0,0,1-.79-.15,1.61,1.61,0,0,1-.72-.48,1.53,1.53,0,0,1-.35-.79,1.72,1.72,0,0,1,.24-1.11Zm4.68,34.52h7.06a1.29,1.29,0,0,0,1.15-.52,1.1,1.1,0,0,0,0-1.23c-.53-1.33-1.17-2.88-1.9-4.64s-1.42-3.43-2.06-5c-.22-.48-.45-.72-.72-.72s-.5.24-.71.72l-4,9.6a1.19,1.19,0,0,0,1.18,1.79Z" transform="translate(0 0)"/><path class="cls-2" d="M280.13,55.88a19.24,19.24,0,0,1,2.54,1.77A12.55,12.55,0,0,1,285,60.19a13.22,13.22,0,0,1,1.79,3.46,13.88,13.88,0,0,1,.67,4.52,19.57,19.57,0,0,1-1.67,8.54,14,14,0,0,1-4.4,5.4A17.31,17.31,0,0,1,275,85a33.92,33.92,0,0,1-7.58.83H242.28a1.92,1.92,0,0,1-1.91-1.91h0V29.65a1.91,1.91,0,0,1,1.91-1.9h24a31.44,31.44,0,0,1,7.3.83,17.21,17.21,0,0,1,6.15,2.74,14.26,14.26,0,0,1,4.29,5,15.83,15.83,0,0,1,1.63,7.5,10.72,10.72,0,0,1-1.85,6.11A16.63,16.63,0,0,1,280,54.06C279,54.74,279.07,55.35,280.13,55.88ZM258,49.77h7.38a3,3,0,0,0,2.54-1.23,4.41,4.41,0,0,0,.95-2.74,3.2,3.2,0,0,0-1.15-2.46,3.4,3.4,0,0,0-2.18-1H258a1.89,1.89,0,0,0-1.9,1.88V47.9A1.88,1.88,0,0,0,258,49.8h0Zm8.33,13.09H258a1.89,1.89,0,0,0-1.9,1.88v4.55A1.9,1.9,0,0,0,258,71.2h8.92a3.93,3.93,0,0,0,2.7-1.19,3.73,3.73,0,0,0,1.27-2.78,4.56,4.56,0,0,0-1.23-2.9A4.07,4.07,0,0,0,266.32,62.86Z" transform="translate(0 0)"/><path class="cls-2" d="M364.73,85.8H352.8a1.8,1.8,0,0,1-1.38-.56,1.93,1.93,0,0,1-.51-1.35V29.65a1.93,1.93,0,0,1,.51-1.35,1.75,1.75,0,0,1,1.38-.55h11.92a1.83,1.83,0,0,1,1.35.55,1.89,1.89,0,0,1,.55,1.35v54.2a2,2,0,0,1-1.89,2Z" transform="translate(0 0)"/><path class="cls-3" d="M35.2,86.83a29.83,29.83,0,0,1-11.9-2.38A32,32,0,0,1,13.58,78,30.17,30.17,0,0,1,7,68.5,29.3,29.3,0,0,1,7,45.17a30.61,30.61,0,0,1,6.59-9.52,31.48,31.48,0,0,1,9.72-6.47A29.83,29.83,0,0,1,35.2,26.8a30.93,30.93,0,0,1,15.2,3.57,29.12,29.12,0,0,1,10.52,9.84,1.81,1.81,0,0,1,.19,1.44,1.92,1.92,0,0,1-.83,1.23L50.8,49a2.12,2.12,0,0,1-1.43.28A2.17,2.17,0,0,1,48,48.5a21.11,21.11,0,0,0-5.55-4.85,13.92,13.92,0,0,0-7.27-1.82,13.37,13.37,0,0,0-5.67,1.23,15.15,15.15,0,0,0-4.64,3.29,15.84,15.84,0,0,0-3.09,4.81,14.71,14.71,0,0,0,0,11.39,15.16,15.16,0,0,0,3.14,4.72,15.62,15.62,0,0,0,4.64,3.25,13.15,13.15,0,0,0,5.62,1.23,16.88,16.88,0,0,0,6-1.11A9.72,9.72,0,0,0,45.8,67a1,1,0,0,0,.08-1.15,1.2,1.2,0,0,0-1.08-.51H35.68a1.89,1.89,0,0,1-1.88-1.9h0V54a1.9,1.9,0,0,1,1.87-1.91H63a2.09,2.09,0,0,1,1.39.52A2,2,0,0,1,65.06,54a27.77,27.77,0,0,1,.16,3.29,33.42,33.42,0,0,1-.24,4,26.73,26.73,0,0,1-3.09,10.16,28.14,28.14,0,0,1-6.55,8.09,30.81,30.81,0,0,1-20.12,7.3Z" transform="translate(0 0)"/><path class="cls-3" d="M145.51,29.54a2.89,2.89,0,0,1,1.07-1.23,2.82,2.82,0,0,1,1.63-.52h11.11a2.7,2.7,0,0,1,1.55.52,2.89,2.89,0,0,1,1.07,1.23l23.17,54a1.65,1.65,0,0,1-.12,1.51,1.77,1.77,0,0,1-1.71.79H169.72a2.8,2.8,0,0,1-1.63-.52,3.48,3.48,0,0,1-1.15-1.23l-2.14-4.8a3.66,3.66,0,0,0-1.15-1.23,2.75,2.75,0,0,0-1.54-.51H145.35a2.85,2.85,0,0,0-1.62.51,3,3,0,0,0-1.08,1.23l-2.22,4.76a2.89,2.89,0,0,1-1.07,1.23,2.7,2.7,0,0,1-1.55.52H124.16a2.35,2.35,0,0,1-.83-.16,1.61,1.61,0,0,1-.71-.47,1.58,1.58,0,0,1-.36-.8,1.87,1.87,0,0,1,.24-1.11Zm4.68,34.52h7.07a1.29,1.29,0,0,0,1.15-.52,1.1,1.1,0,0,0,0-1.23q-.79-2-1.91-4.64c-.74-1.77-1.43-3.43-2.06-5q-.31-.72-.72-.72c-.26,0-.5.24-.71.72l-4,9.6a1.15,1.15,0,0,0,.35,1.59,1.13,1.13,0,0,0,.84.16Z" transform="translate(0 0)"/><path class="cls-3" d="M284.7,55.88a18,18,0,0,1,2.54,1.77,12.55,12.55,0,0,1,2.34,2.54,13.25,13.25,0,0,1,1.75,3.46,13.88,13.88,0,0,1,.67,4.52,19.68,19.68,0,0,1-1.62,8.53A14.2,14.2,0,0,1,286,82.1,17.31,17.31,0,0,1,279.58,85a33.77,33.77,0,0,1-7.57.83H246.85a1.91,1.91,0,0,1-1.91-1.9V29.65a1.92,1.92,0,0,1,1.91-1.91h24a31.44,31.44,0,0,1,7.3.83,17.57,17.57,0,0,1,6.15,2.74,14.24,14.24,0,0,1,4.28,5,15.83,15.83,0,0,1,1.63,7.5A10.71,10.71,0,0,1,288.42,50a16.63,16.63,0,0,1-3.85,4.13C283.59,54.75,283.64,55.35,284.7,55.88Zm-22.14-6.11h7.38a3,3,0,0,0,2.54-1.23,4.33,4.33,0,0,0,.95-2.74,3.2,3.2,0,0,0-1.15-2.46,3.4,3.4,0,0,0-2.18-1h-7.54a1.89,1.89,0,0,0-1.9,1.88V47.9a1.88,1.88,0,0,0,1.86,1.9h0Zm8.33,13.1h-8.33a1.88,1.88,0,0,0-1.9,1.86v4.56a1.9,1.9,0,0,0,1.87,1.91h8.92a3.93,3.93,0,0,0,2.7-1.19,3.73,3.73,0,0,0,1.27-2.78,4.56,4.56,0,0,0-1.23-2.9A4.1,4.1,0,0,0,270.89,62.87Z" transform="translate(0 0)"/><path class="cls-3" d="M369.31,85.8H357.38a1.75,1.75,0,0,1-1.38-.56,1.89,1.89,0,0,1-.51-1.34V29.7a1.93,1.93,0,0,1,.51-1.35,1.8,1.8,0,0,1,1.38-.56h11.93a1.89,1.89,0,0,1,1.89,1.89V83.9a1.89,1.89,0,0,1-1.88,1.9Z" transform="translate(0 0)"/><g class="cls-4"><text class="cls-5" transform="translate(234.32 124.43)"><tspan xml:space="preserve">D  E  S  I  G  N</tspan></text></g></svg>